<svg width="0" height="0" class="hidden">
  <symbol xmlns="http://www.w3.org/2000/svg" viewBox="0 0 38 38" stroke="currentColor" id="build-status-static">
    <g fill="none" fill-rule="evenodd">
      <g transform="translate(1 1)" stroke-width="4">
        <circle stroke-opacity="1" cx="18" cy="18" r="16" />
      </g>
    </g>
  </symbol>

  <symbol xmlns="http://www.w3.org/2000/svg" viewBox="0 0 40 40" stroke="currentColor" id="build-status-in-progress">
    <g fill="none" fill-rule="evenodd">
      <g transform="translate(1 1)" stroke-width="4">
        <circle stroke-opacity=".4" cx="19" cy="19" r="18" />
        <path d="M37 19c0-9.94-8.06-18-18-18" />
      </g>
    </g>
  </symbol>

  <symbol xmlns="http://www.w3.org/2000/svg" viewBox="0 0 24 24" id="last-failed">
    <g id="Group" transform="translate(8.000000, 8.000000)" stroke-width="3" stroke="currentColor">
      <path d="M8,0 L0,8 L8,0 Z"></path>
      <path d="M8,0 L0,8 L8,0 Z" transform="translate(4.000000, 4.000000) scale(-1, 1) translate(-4.000000, -4.000000) "></path>
    </g>
  </symbol>

  <symbol xmlns="http://www.w3.org/2000/svg" viewBox="0 0 24 24" id="last-successful">
    <title>last-build-successful</title>
    <path d="M10.843 16.894L6.6 12.65l2.121-2.121 2.121 2.121 4.951-4.95 2.122 2.121-7.072 7.073z"></path>
  </symbol>

  <svg xmlns="http://www.w3.org/2000/svg" viewBox="0 0 24 24" id="last-unstable">
    <g stroke="currentColor" stroke-width="1">
      <circle cx="12" cy="16.5" r="1" />
      <path d="M11 6.5h2v6h-2z" />
    </g>
  </svg>

  <symbol xmlns="http://www.w3.org/2000/svg" viewBox="0 0 24 24" id="last-aborted">
    <g stroke="currentColor" stroke-width="2" fill="none" fill-rule="evenodd">
      <path d="M19.3961792,4.5 L4.5,19.3961792 L19.3961792,4.5 Z"></path>
      <path d="M19.3961792,4.5 L4.5,19.3961792 L19.3961792,4.5 Z" transform="translate(11.948090, 11.948090) scale(-1, 1) translate(-11.948090, -11.948090) "></path>
    </g>
  </symbol>

  <symbol xmlns="http://www.w3.org/2000/svg" viewBox="0 0 28 28" id="last-disabled">
    <g stroke="currentColor" stroke-width="3" fill="none" fill-rule="evenodd">
      <path d="M18.4085057,9.72715652 L9.75138867,18.3842736 L18.4085057,9.72715652 Z" transform="translate(14.079947, 14.055715) rotate(-5.000000) translate(-14.079947, -14.055715) "></path>
    </g>
  </symbol>

  <symbol xmlns="http://www.w3.org/2000/svg" viewBox="0 0 24 24" id="never-built">
    <g stroke="none" stroke-width="1" fill="none" fill-rule="evenodd">
      <!-- <circle id="Oval" stroke="currentColor" stroke-width="3" fill-rule="nonzero" cx="12" cy="12" r="10.5"></circle> -->
      <circle id="Oval-Copy-10" fill="currentColor" cx="7.35714286" cy="12.0371429" r="1.85714286"></circle>
      <circle id="Oval-Copy-11" fill="currentColor" cx="16.6428571" cy="12.0371429" r="1.85714286"></circle>
      <circle id="Oval-Copy-12" fill="currentColor" cx="12" cy="12.0371429" r="1.85714286"></circle>
    </g>
  </symbol>

  <svg id="pipeline-multi-branch-fold" t="1668787754855" class="icon" viewBox="0 0 1024 1024" version="1.1" xmlns="http://www.w3.org/2000/svg" >
    <path d="M901.797398 304.354928H482.013848a119.944609 119.944609 0 0 0-119.944609-119.944608H122.202602A119.944609 119.944609 0 0 0 2.257993 304.354928v599.700463c0 10.07065 1.625755 19.734862 3.974069 29.105535 0.587078 2.348313 1.422536 4.583727 2.099934 6.93204 2.461213 7.609438 5.509504 14.880176 9.370672 21.721896 0.699978 1.354796 1.354796 2.687012 2.122514 3.974069a120.034928 120.034928 0 0 0 42.382536 41.592238 118.883352 118.883352 0 0 0 59.994884 16.618831h779.594796a119.967189 119.967189 0 0 0 119.967189-119.944609V424.322117a120.012348 120.012348 0 0 0-119.967189-119.967189z m-779.594796 0c-17.567189 0-34.14086 3.996648-49.201676 10.770629a119.809129 119.809129 0 0 1 109.1514-70.742933h119.944609c44.25667 0 82.507078 24.250849 103.303197 59.972304H122.202602z" fill="#3cc451"></path>
  </svg>
  
  <symbol id="pipeline-multi-branch-unfold" viewBox="0 0 1024 1024" version="1.1" xmlns="http://www.w3.org/2000/svg">
    <path d="M302.797605 485.218594h537.919985v-59.746308a119.560354 119.560354 0 0 0-119.537775-119.537774H482.126846a119.537774 119.537774 0 0 0-119.537774-119.537775H123.513523a119.560354 119.560354 0 0 0-119.537774 119.537775v597.666292c0 15.241405 3.16118 29.692515 8.354548 43.082371l170.929533-341.904227c39.130896-59.497929 53.536846-119.560354 119.537775-119.560354z m597.688872 59.768887H362.589072c-66.023508 0-80.452038 60.062425-119.537774 119.537774L63.722056 963.347111c0 66.023508 53.536846 59.768887 119.537774 59.768888h537.919985c66.000928 0 80.429458 12.75762 119.537775-59.768888l179.284081-298.821856a119.515195 119.515195 0 0 0-119.515194-119.537774z" fill="#3cc451" ></path>
  </symbol>

  <symbol id="branch" viewBox="0 0 2048 2048" version="1.1" xmlns="http://www.w3.org/2000/svg">
    <path d="M896 256c0-72.533333-55.466667-128-128-128s-128 55.466667-128 128c0 55.466667 34.133333 98.133333 81.066667 119.466667-17.066667 55.466667-64 93.866667-123.733334 93.866666h-170.666666c-46.933333 0-93.866667 17.066667-128 42.666667V375.466667C349.866667 358.4 384 311.466667 384 256c0-72.533333-55.466667-128-128-128S128 183.466667 128 256c0 55.466667 34.133333 102.4 85.333333 119.466667v273.066666c-51.2 17.066667-85.333333 64-85.333333 119.466667 0 72.533333 55.466667 128 128 128s128-55.466667 128-128c0-55.466667-34.133333-98.133333-81.066667-119.466667 17.066667-55.466667 64-93.866667 123.733334-93.866666h170.666666c106.666667 0 192-76.8 209.066667-179.2C857.6 362.666667 896 311.466667 896 256zM256 213.333333c25.6 0 42.666667 17.066667 42.666667 42.666667s-17.066667 42.666667-42.666667 42.666667-42.666667-17.066667-42.666667-42.666667 17.066667-42.666667 42.666667-42.666667z m0 597.333334c-25.6 0-42.666667-17.066667-42.666667-42.666667s17.066667-42.666667 42.666667-42.666667 42.666667 17.066667 42.666667 42.666667-17.066667 42.666667-42.666667 42.666667zM768 298.666667c-25.6 0-42.666667-17.066667-42.666667-42.666667s17.066667-42.666667 42.666667-42.666667 42.666667 17.066667 42.666667 42.666667-17.066667 42.666667-42.666667 42.666667z" fill="#707070"></path>
  </symbol>
</svg>